<?xml version="1.0" encoding="UTF-8" standalone="no"?>
<!DOCTYPE svg PUBLIC "-//W3C//DTD SVG 20010904//EN"
              "http://www.w3.org/TR/2001/REC-SVG-20010904/DTD/svg10.dtd">

<svg xmlns="http://www.w3.org/2000/svg"
     width="50.000000pt" height="50.000000pt"
     viewBox="0 0 512 512" preserveAspectRatio="xMidYMid meet">
    <metadata>
    Copyright alliantNational, an alliantgroup company, 2022
    </metadata>
    <g fill="#0072FF" stroke="none">
  <path id="Selection"
        fill="#0072FF" stroke="none"

        d="M 394.00,405.00
           C 388.29,407.80 384.53,413.42 379.83,417.60
             370.97,425.48 362.06,432.04 352.00,438.32
             320.23,458.15 280.10,466.43 243.00,466.00
             243.00,466.00 233.00,465.09 233.00,465.09
             206.48,463.27 188.78,459.85 164.00,449.55
             143.96,441.22 123.10,427.95 107.17,413.25
             80.78,388.90 62.76,358.19 52.56,324.00
             52.56,324.00 49.68,315.00 49.68,315.00
             49.68,315.00 47.58,303.00 47.58,303.00
             45.95,293.98 44.04,285.24 44.00,276.00
             44.00,276.00 44.00,246.00 44.00,246.00
             44.09,238.21 45.47,230.60 46.91,223.00
             46.91,223.00 49.43,209.00 49.43,209.00
             53.03,193.37 60.93,173.01 68.71,159.00
             89.89,120.85 119.68,93.35 159.00,74.58
             182.82,63.21 204.02,58.61 230.00,55.84
             230.00,55.84 250.00,54.00 250.00,54.00
             250.00,54.00 273.00,55.84 273.00,55.84
             273.00,55.84 297.00,59.12 297.00,59.12
             315.34,62.95 338.25,72.20 354.00,82.28
             363.55,88.40 372.70,95.36 381.00,103.09
             381.00,103.09 393.00,115.00 393.00,115.00
             393.00,115.00 394.00,95.00 394.00,95.00
             394.00,95.00 394.00,63.00 394.00,63.00
             394.00,63.00 455.00,63.00 455.00,63.00
             455.00,63.00 455.00,456.00 455.00,456.00
             455.00,456.00 394.00,456.00 394.00,456.00
             394.00,456.00 394.00,405.00 394.00,405.00 Z
           M 238.00,108.15
           C 216.43,112.31 210.46,111.87 189.00,121.51
             157.22,135.79 131.04,164.49 116.90,196.00
             85.26,266.47 107.80,354.14 177.00,392.86
             188.80,399.46 193.80,402.11 207.00,405.91
             207.00,405.91 215.00,408.49 215.00,408.49
             220.97,409.98 237.81,411.92 244.00,412.00
             266.91,412.26 287.41,408.53 308.00,398.10
             348.56,377.58 376.04,343.70 388.09,300.00
             388.09,300.00 390.53,292.00 390.53,292.00
             392.19,284.15 392.69,275.98 393.04,268.00
             393.04,268.00 393.96,256.00 393.96,256.00
             393.96,256.00 393.09,248.00 393.09,248.00
             391.45,224.09 387.45,208.41 376.11,187.00
             354.96,147.04 314.84,116.62 270.00,109.87
             262.26,108.70 264.07,108.01 255.00,108.15
             255.00,108.15 238.00,108.15 238.00,108.15 Z" />
</svg>
