<svg version="1.1" id="Layer_1" xmlns="http://www.w3.org/2000/svg" xmlns:xlink="http://www.w3.org/1999/xlink" x="0px" y="0px" width="100%" viewBox="0 0 2153 2153" enable-background="new 0 0 2153 2153" xml:space="preserve">
<path fill="#00AEEF" opacity="1.000000" stroke="none" d="
M2156.000000,46.000000 
	C2156.000000,731.375183 2156.000000,1416.750366 2155.072998,2102.913086 
	C2045.623535,2103.700439 1937.101196,2103.700439 1827.461670,2103.700439 
	C1827.461670,2013.693848 1827.461670,1925.014038 1827.461670,1834.616577 
	C1824.549561,1837.209229 1823.053223,1838.414551 1821.701294,1839.764404 
	C1797.226318,1864.206787 1773.723145,1889.719604 1748.124268,1912.920532 
	C1678.499756,1976.023071 1599.450684,2024.911255 1513.966187,2063.464600 
	C1452.870728,2091.018555 1389.514526,2112.036377 1324.176636,2127.062012 
	C1278.162231,2137.643555 1231.682373,2145.359619 1184.686768,2149.861328 
	C1166.527588,2151.600830 1148.318481,2152.817627 1129.214233,2154.173828 
	C1124.447754,2154.050781 1120.576416,2153.757324 1116.756958,2154.079102 
	C1113.142944,2154.383301 1109.583374,2155.333740 1106.000000,2156.000000 
	C1083.291504,2156.000000 1060.583130,2156.000000 1036.451904,2155.302246 
	C1026.672607,2154.432617 1018.316040,2154.260498 1009.083374,2153.904785 
	C990.995728,2152.481934 973.749573,2151.600098 956.579285,2149.935791 
	C907.612183,2145.189697 859.160767,2137.259033 811.204529,2126.174316 
	C717.309082,2104.471436 627.918396,2070.861572 543.330627,2024.735352 
	C447.034729,1972.224731 361.148682,1906.180664 286.297821,1825.843750 
	C258.595123,1796.110352 232.649796,1764.997070 208.616348,1732.239624 
	C145.533600,1646.258667 97.153008,1552.668823 62.707489,1451.782837 
	C44.409992,1398.192139 30.365217,1343.501587 20.506340,1287.788696 
	C12.693943,1243.640259 7.385934,1199.137939 5.136219,1153.405884 
	C4.952323,1148.267456 5.140033,1143.996582 4.620184,1139.813477 
	C4.288151,1137.141724 2.909436,1134.599976 1.999998,1132.000000 
	C2.000000,1100.624878 2.000000,1069.249756 2.657102,1036.413208 
	C3.609433,1028.685425 3.904660,1022.419128 4.688270,1015.468872 
	C7.582274,987.342590 9.091449,959.785461 12.588251,932.482910 
	C19.008549,882.353943 28.845999,832.832397 42.051365,784.000977 
	C59.027252,721.226929 81.415581,660.450928 109.413742,601.784119 
	C141.057571,535.478333 179.328751,473.210266 224.110260,414.921356 
	C251.723160,378.979614 281.719269,345.140198 313.655396,313.060852 
	C329.362091,297.283722 346.116943,282.520844 362.781677,267.731903 
	C427.357574,210.424622 498.663605,162.967209 575.382935,123.569115 
	C631.441589,94.781006 689.702942,71.325020 749.931702,52.810871 
	C797.964722,38.045673 846.801636,26.547766 896.365173,18.304155 
	C939.942505,11.056182 983.835205,6.424372 1028.857422,3.951933 
	C1033.608765,4.012985 1037.468018,4.253986 1041.275391,3.914475 
	C1044.878540,3.593180 1048.427368,2.662603 1052.000000,1.999996 
	C1078.708496,2.000000 1105.416870,2.000000 1133.632935,2.608737 
	C1142.140625,3.386459 1149.140625,3.555444 1157.017090,3.921014 
	C1172.438721,5.265562 1186.991211,6.332090 1201.528442,7.575809 
	C1259.581665,12.542489 1316.659302,22.976883 1372.925415,38.052925 
	C1429.281006,53.152916 1483.810425,73.215492 1536.401123,98.419952 
	C1582.093872,120.318588 1625.674438,145.898178 1667.038452,175.213455 
	C1723.712646,215.379456 1775.111450,261.409149 1821.098511,313.483521 
	C1822.665283,315.257660 1824.820557,316.511902 1827.749023,318.841675 
	C1827.749023,228.245422 1827.748413,139.304672 1827.764404,50.363922 
	C1827.764526,49.712688 1827.967651,49.054707 1828.129517,48.413326 
	C1828.205566,48.111935 1828.366455,47.808300 1828.564331,47.567684 
	C1828.771729,47.315552 1829.069702,47.137848 1830.109619,46.291553 
	C1833.277954,46.291553 1837.232666,46.291550 1841.187378,46.291550 
	C1942.132202,46.291542 2043.077148,46.294872 2144.021973,46.279221 
	C2148.014648,46.278603 2152.007324,46.097179 2156.000000,46.000000 
M352.855499,869.843506 
	C336.955719,927.380188 327.882660,986.102905 324.620911,1045.581909 
	C322.691559,1080.764526 322.816833,1116.059204 325.417297,1151.348389 
	C327.986145,1186.208862 332.765808,1220.653687 339.722015,1254.858765 
	C352.719757,1318.771362 373.956360,1379.891602 402.530975,1438.434692 
	C420.073120,1474.374756 440.495636,1508.661499 463.512604,1541.426880 
	C503.733368,1598.682617 550.664795,1649.663086 604.678284,1694.140991 
	C658.973267,1738.850708 718.311218,1775.342163 782.740723,1803.546265 
	C835.365295,1826.582520 890.026367,1842.996826 946.476135,1853.442993 
	C987.382385,1861.012817 1028.731323,1864.489136 1070.274414,1865.507324 
	C1082.207031,1865.799805 1094.169556,1864.543091 1106.124390,1864.333130 
	C1132.099609,1863.876465 1157.747803,1860.563110 1183.342407,1856.366943 
	C1265.295654,1842.931030 1342.098999,1814.831665 1414.521240,1774.656250 
	C1497.103516,1728.844849 1569.195312,1669.999146 1630.977417,1598.503052 
	C1690.508545,1529.611816 1736.982300,1452.833862 1770.546997,1368.252686 
	C1805.707886,1279.649414 1823.674683,1187.382568 1827.453613,1092.358765 
	C1828.734253,1060.153809 1827.678711,1027.898926 1824.577393,995.684753 
	C1821.067139,959.220093 1815.327026,923.208069 1806.691772,887.661194 
	C1785.036743,798.519958 1748.477295,715.832275 1698.006104,639.310242 
	C1660.454834,582.376648 1616.366699,531.019226 1565.837769,485.138062 
	C1536.700073,458.680634 1505.882446,434.411682 1473.140015,412.665802 
	C1414.599121,373.786011 1351.992676,343.229187 1284.795166,322.302460 
	C1222.517822,302.907959 1158.786011,292.525452 1093.563721,291.681946 
	C1059.964478,291.247437 1026.501099,293.466125 993.131470,297.563354 
	C946.804138,303.251617 901.460144,313.229889 857.041748,327.507172 
	C799.095642,346.132690 744.390625,371.713226 692.712402,403.849152 
	C611.765076,454.185974 543.341370,518.142822 486.073273,594.136780 
	C450.880280,640.837463 421.629150,691.114380 397.607727,744.416504 
	C379.537781,784.512573 364.380554,825.664795 352.855499,869.843506 
z" data-index="0" style="opacity: 1;"></path>

<path fill="#FFFFFF" opacity="1.000000" stroke="none" d="
M5.208118,1154.310547 
	C7.385934,1199.137939 12.693943,1243.640259 20.506340,1287.788696 
	C30.365217,1343.501587 44.409992,1398.192139 62.707489,1451.782837 
	C97.153008,1552.668823 145.533600,1646.258667 208.616348,1732.239624 
	C232.649796,1764.997070 258.595123,1796.110352 286.297821,1825.843750 
	C361.148682,1906.180664 447.034729,1972.224731 543.330627,2024.735352 
	C627.918396,2070.861572 717.309082,2104.471436 811.204529,2126.174316 
	C859.160767,2137.259033 907.612183,2145.189697 956.579285,2149.935791 
	C973.749573,2151.600098 990.995728,2152.481934 1009.118164,2154.382324 
	C1010.029114,2155.043457 1010.000000,2156.000000 1010.000000,2156.000000 
	C674.146240,2156.000000 338.292511,2156.000000 2.000000,2156.000000 
	C2.000000,1822.625000 2.000000,1489.249878 2.537029,1154.984131 
	C3.785413,1154.166016 4.496768,1154.238281 5.208118,1154.310547 
z" data-index="2" style="opacity: 1; visibility: hidden;"></path>

<path fill="#FEFFFF" opacity="1.000000" stroke="none" d="
M2156.000000,45.062435 
	C2152.007324,46.097179 2148.014648,46.278603 2144.021973,46.279221 
	C2043.077148,46.294872 1942.132202,46.291542 1841.187378,46.291550 
	C1837.232666,46.291550 1833.277954,46.291553 1830.109619,46.291553 
	C1829.069702,47.137848 1828.771729,47.315552 1828.564331,47.567684 
	C1828.366455,47.808300 1828.205566,48.111935 1828.129517,48.413326 
	C1827.967651,49.054707 1827.764526,49.712688 1827.764404,50.363922 
	C1827.748413,139.304672 1827.749023,228.245422 1827.749023,318.841675 
	C1824.820557,316.511902 1822.665283,315.257660 1821.098511,313.483521 
	C1775.111450,261.409149 1723.712646,215.379456 1667.038452,175.213455 
	C1625.674438,145.898178 1582.093872,120.318588 1536.401123,98.419952 
	C1483.810425,73.215492 1429.281006,53.152916 1372.925415,38.052925 
	C1316.659302,22.976883 1259.581665,12.542489 1201.528442,7.575809 
	C1186.991211,6.332090 1172.438721,5.265562 1156.996948,3.488670 
	C1156.100586,2.859741 1156.000000,2.000000 1156.000000,2.000000 
	C1489.333374,2.000000 1822.666626,2.000000 2156.000000,2.000000 
	C2156.000000,16.148441 2156.000000,30.136656 2156.000000,45.062435 
z" data-index="4" style="opacity: 1; visibility: hidden;"></path>
<path fill="#ADE6FA" opacity="1.000000" stroke="none" d="
M5.136223,1153.405762 
	C4.496768,1154.238281 3.785413,1154.166016 2.537029,1154.046875 
	C2.000000,1147.277466 2.000000,1140.554810 1.999998,1132.916138 
	C2.909436,1134.599976 4.288151,1137.141724 4.620184,1139.813477 
	C5.140033,1143.996582 4.952323,1148.267456 5.136223,1153.405762 
z" data-index="5"></path>
<path fill="#ACE4F9" opacity="1.000000" stroke="none" d="
M1010.926392,2156.000000 
	C1010.000000,2156.000000 1010.029114,2155.043457 1009.994263,2154.565918 
	C1018.316040,2154.260498 1026.672607,2154.432617 1035.514648,2155.302246 
	C1027.950928,2156.000000 1019.901794,2156.000000 1010.926392,2156.000000 
z" data-index="6"></path>
<path fill="#ACE5F9" opacity="1.000000" stroke="none" d="
M1028.857422,3.951933 
	C1027.942505,3.878307 1028.021729,2.940702 1028.010864,2.470351 
	C1035.385864,2.000000 1042.771606,2.000000 1051.078735,1.999996 
	C1048.427368,2.662603 1044.878540,3.593180 1041.275391,3.914475 
	C1037.468018,4.253986 1033.608765,4.012985 1028.857422,3.951933 
z" data-index="7"></path>
<path fill="#AAE4F9" opacity="1.000000" stroke="none" d="
M1129.214233,2154.173828 
	C1130.132080,2154.272461 1130.105469,2155.139160 1130.052734,2155.569580 
	C1122.614136,2156.000000 1115.228394,2156.000000 1106.921265,2156.000000 
	C1109.583374,2155.333740 1113.142944,2154.383301 1116.756958,2154.079102 
	C1120.576416,2153.757324 1124.447754,2154.050781 1129.214233,2154.173828 
z" data-index="8"></path>
<path fill="#A6E3F9" opacity="1.000000" stroke="none" d="
M1155.083862,2.000000 
	C1156.000000,2.000000 1156.100586,2.859741 1156.120605,3.292085 
	C1149.140625,3.555444 1142.140625,3.386459 1134.570312,2.608737 
	C1140.722534,2.000000 1147.445190,2.000000 1155.083862,2.000000 
z" data-index="9"></path>
<path fill="#A6E1F9" opacity="1.000000" stroke="none" d="
M2.000000,1016.908203 
	C2.368618,1015.997070 2.737235,1015.994141 3.652871,1016.072021 
	C3.904660,1022.419128 3.609433,1028.685425 2.657102,1035.475830 
	C2.000000,1029.938843 2.000000,1023.877625 2.000000,1016.908203 
z" data-index="10"></path>

</svg>